<?xml version="1.0" encoding="utf-8"?>
<!-- Generator: Adobe Illustrator 16.0.0, SVG Export Plug-In . SVG Version: 6.00 Build 0)  -->
<!DOCTYPE svg PUBLIC "-//W3C//DTD SVG 1.1//EN" "http://www.w3.org/Graphics/SVG/1.1/DTD/svg11.dtd">
<svg version="1.1" id="图层_1" xmlns="http://www.w3.org/2000/svg" xmlns:xlink="http://www.w3.org/1999/xlink" x="0px" y="0px"
	 width="109.334px" height="154px" viewBox="0 0 109.334 154" enable-background="new 0 0 109.334 154" xml:space="preserve">
<g>
	<g>
		<path fill="#54B336" d="M85.947,12.377c-1.806,8.989-4.866,23.937-6.481,30.21c-2.172,8.435-4.793,12.537-5.498,13.538
			c-2.348,4.083-5.895,7.386-10.16,9.431c0,0-3.793,2.417-10.047,3.224c-3.904,0.504-4.973,0.21-6.736,0.126
			c-8.936-0.424-16.414-7.692-16.414-17c0-9.307,7.545-16.854,16.854-16.854c2.209,0,4.318,0.431,6.251,1.204l0.267,0.146
			c0,0,6.683,3.395,2.738,12.293l-0.065,0.087c-1.601-2.287-4.256-3.781-7.259-3.781c-4.891,0-8.855,3.965-8.855,8.857
			c0,4.892,3.965,8.856,8.855,8.856c3.918,0,7.24-2.543,8.41-6.07l0.008,0.002l0.041-0.097c1.07-2.582,2.287-6.595,2.287-6.595
			L70.195,4.653c-4.917-1.476-10.13-2.274-15.528-2.274c-29.776,0-53.916,24.14-53.916,53.917c0,29.776,24.14,53.916,53.916,53.916
			c29.777,0,53.916-24.14,53.916-53.916C108.583,38.181,99.648,22.153,85.947,12.377z"/>
		<path fill="#54B336" d="M85.947,12.377c-1.806,8.989-4.866,23.937-6.481,30.21c-2.172,8.435-4.793,12.537-5.498,13.538
			c-2.348,4.083-5.895,7.386-10.16,9.431c0,0-3.793,2.417-10.047,3.224c-3.904,0.504-4.973,0.21-6.736,0.126
			c-8.936-0.424-16.414-7.692-16.414-17c0-9.307,7.545-16.854,16.854-16.854c2.209,0,4.318,0.431,6.251,1.204l0.267,0.146
			c0,0,6.683,3.395,2.738,12.293l-0.065,0.087c-1.601-2.287-4.256-3.781-7.259-3.781c-4.891,0-8.855,3.965-8.855,8.857
			c0,4.892,3.965,8.856,8.855,8.856c3.918,0,7.24-2.543,8.41-6.07l0.008,0.002l0.041-0.097c1.07-2.582,2.287-6.595,2.287-6.595
			L70.195,4.653c-4.917-1.476-10.13-2.274-15.528-2.274c-29.776,0-53.916,24.14-53.916,53.917c0,29.776,24.14,53.916,53.916,53.916
			c29.777,0,53.916-24.14,53.916-53.916C108.583,38.181,99.648,22.153,85.947,12.377z"/>
	</g>
	<text transform="matrix(1 0 0 1 3.9375 150.9995)" fill="#54B336" font-family="'AmericanTypewriter'" font-size="30">Jin Liu</text>
</g>
</svg>
